<?xml version="1.0" encoding="utf-8"?>
<!-- Generator: Adobe Illustrator 16.0.0, SVG Export Plug-In . SVG Version: 6.00 Build 0)  -->
<!DOCTYPE svg PUBLIC "-//W3C//DTD SVG 1.1//EN" "http://www.w3.org/Graphics/SVG/1.1/DTD/svg11.dtd">
<svg version="1.1" id="Layer_1" xmlns="http://www.w3.org/2000/svg" xmlns:xlink="http://www.w3.org/1999/xlink" x="0px" y="0px"
	 width="128px" height="128px" viewBox="0 0 128 128" enable-background="new 0 0 128 128" xml:space="preserve">
<g>
	<g>
		<path fill="#282D33" d="M44.369,34.941h-4V20.676c0-3.592-2.973-6.515-6.627-6.515l-0.874,0.005v4.611h-4V10.19l4.862-0.029
			c5.872,0,10.639,4.717,10.639,10.515V34.941z"/>
	</g>
	<g>
		<path fill="#282D33" d="M8.117,34.444H5.04c-1.663,0-2.966-1.494-2.966-3.4v-9.897c0-1.903,1.303-3.394,2.966-3.394h3.077v4H6.074
			v8.691h2.043V34.444z"/>
	</g>
	<g>
		<polygon fill="#282D33" points="112.914,34.44 110.445,34.44 110.445,30.44 111.742,30.44 118.514,26.1 111.742,21.761 
			110.445,21.761 110.445,17.761 112.914,17.761 125.926,26.1 		"/>
	</g>
	<g>
		<polygon fill="#282D33" points="111.514,34.438 87.961,34.438 87.961,30.438 107.514,30.438 107.514,21.761 87.961,21.761 
			87.961,17.761 111.514,17.761 		"/>
	</g>
	<g>
		<polygon fill="#282D33" points="41.032,34.438 10.89,34.438 10.89,17.761 41.032,17.761 41.032,21.761 14.89,21.761 14.89,30.438 
			41.032,30.438 		"/>
	</g>
	<g>
		<path fill="#282D33" d="M56.064,66.771h-4v-5.813c-2.309-0.789-4.433-2.059-6.213-3.726l-0.142-0.147L28.868,37.74l-0.002-3.266
			l-0.09-1.472l1.387-0.525l0.702,1.862l0.003-0.012v-1.981l0.407,0.338l0.067-0.271l1.525,0.372v3.458l15.789,18.136
			c1.651,1.522,3.681,2.606,5.876,3.136l1.531,0.37V66.771z"/>
	</g>
	<g>
		<path fill="#282D33" d="M84.305,60.524h-4V55.9l0.811-0.6c3.366-2.489,5.297-6.275,5.297-10.386V18.898l-0.282-5.65
			c-0.003-2.07-1.639-3.674-3.648-3.674c-3.637,0-3.646,1.52-3.646,2.175v0.005h-4v-1.391c0-1.973-1.637-3.578-3.647-3.578
			c-2.01,0-3.646,1.605-3.646,3.578h-4V7.575C63.543,5.604,61.907,4,59.897,4c-2.011,0-3.647,1.604-3.647,3.575v3.138h-4
			c0-1.516-1.797-3.367-3.894-3.367c-2.118,0-3.842,1.689-3.842,3.767v23.829h-4V11.113c0-4.283,3.518-7.767,7.842-7.767
			c1.624,0,3.172,0.514,4.459,1.371C53.957,1.953,56.701,0,59.897,0c2.993,0,5.59,1.713,6.845,4.202
			c1.254-0.891,2.789-1.417,4.446-1.417c2.829,0,5.304,1.53,6.627,3.799c1.226-0.658,2.799-1.01,4.666-1.01
			c4.216,0,7.646,3.398,7.646,7.575l0.282,5.65l0.003,26.115c0,5.053-2.213,9.723-6.107,12.966V60.524z"/>
	</g>
	<g>
		<g>
			<polygon fill="#282D33" points="99.069,113.011 95.069,113.011 95.069,69.285 52.529,69.285 52.529,113.011 48.529,113.011 
				48.529,65.285 99.069,65.285 			"/>
		</g>
		<g>
			<polygon fill="#282D33" points="52.529,128 48.529,128 48.529,65.285 99.069,65.285 99.069,113.011 95.069,113.011 
				95.069,69.285 52.529,69.285 			"/>
		</g>
	</g>
	<g>
		<rect x="85.584" y="75.087" fill="#282D33" width="4" height="4.997"/>
	</g>
</g>
</svg>
